<?xml version="1.0" encoding="UTF-8"?>
<svg width="326" height="326" version="1.1" viewBox="0 0 86.254 86.254" xmlns="http://www.w3.org/2000/svg">
 <g transform="translate(-61.873 -105.37)">
  <circle cx="105" cy="148.5" r="43.127" fill="#3050ff" stroke-width=".26458"/>
  <path d="m105 117.74a30.758 30.758 0 0 0-30.758 30.758 30.758 30.758 0 0 0 30.758 30.758 30.758 30.758 0 0 0 30.758-30.758 30.758 30.758 0 0 0-30.758-30.758zm0 5.2917a25.465 25.465 0 0 1 25.465 25.465 25.465 25.465 0 0 1-25.465 25.465 25.465 25.465 0 0 1-25.465-25.465 25.465 25.465 0 0 1 25.465-25.465z" fill="#fff" stroke-width=".26458"/>
  <g fill="#fff">
   <rect x="102.66" y="133.09" width="4.6302" height="30.758" stroke-width=".26458"/>
   <rect transform="rotate(90)" x="146.16" y="-120.39" width="4.6302" height="30.758" stroke-width=".26458"/>
  </g>
 </g>
</svg>